<?xml version="1.0" encoding="UTF-8" standalone="no"?>
<!-- Created with Inkscape (http://www.inkscape.org/) -->

<svg
   width="210mm"
   height="297mm"
   viewBox="0 0 210 297"
   version="1.1"
   inkscape:version="1.3 (0e150ed, 2023-07-21)"
   sodipodi:docname="cp.svg"
   inkscape:export-filename="logo.png"
   inkscape:export-xdpi="96"
   inkscape:export-ydpi="96"
   id="svg4"
   xmlns:inkscape="http://www.inkscape.org/namespaces/inkscape"
   xmlns:sodipodi="http://sodipodi.sourceforge.net/DTD/sodipodi-0.dtd"
   xmlns="http://www.w3.org/2000/svg"
   xmlns:svg="http://www.w3.org/2000/svg">
  <sodipodi:namedview
     pagecolor="#ffffff"
     bordercolor="#cccccc"
     borderopacity="1"
     inkscape:showpageshadow="0"
     inkscape:pageopacity="1"
     inkscape:pagecheckerboard="0"
     inkscape:deskcolor="#d1d1d1"
     inkscape:document-units="mm"
     inkscape:zoom="0.44949408"
     inkscape:cx="75.640596"
     inkscape:cy="555.06849"
     inkscape:window-width="1472"
     inkscape:window-height="830"
     inkscape:window-x="0"
     inkscape:window-y="37"
     inkscape:window-maximized="0"
     inkscape:current-layer="g4"
     id="namedview1" />
  <defs
     id="defs2">
    <rect
       x="108.18888"
       y="316.51002"
       width="275.07598"
       height="156.52859"
       id="rect1" />
    <rect
       x="125.26744"
       y="302.1156"
       width="222.71019"
       height="165.07771"
       id="rect2" />
  </defs>
  <g
     inkscape:label="Capa 1"
     inkscape:groupmode="layer"
     id="g4">
    <text
       style="font-size:35.2777px;fill:#000000;stroke-width:4.99999;stroke-dasharray:none"
       x="41.110332"
       y="85.265877"
       id="text3"><tspan
         sodipodi:role="line"
         style="stroke-width:5"
         x="41.110332"
         y="85.265877"
         id="tspan2" /><tspan
         sodipodi:role="line"
         style="stroke-width:5"
         x="41.110332"
         y="129.36301"
         id="tspan3" /></text>
    <text
       transform="scale(0.26458333)"
       style="font-size:133.333px;white-space:pre;shape-inside:url(#rect5);fill:#000000;stroke-width:18.8976;stroke-dasharray:none"
       id="text4"
       xml:space="preserve" />
    <path
       style="font-size:35.2777px;fill:#000000;stroke-width:18.4373"
       d="m 165.58885,195.06626 c 0,3.97734 -0.80404,7.909 -2.41216,11.79495 -1.56891,3.88593 -3.78495,7.17756 -6.6482,9.87484 -3.13779,2.9259 -6.80509,5.21175 -11.00187,6.8576 -4.15759,1.64579 -9.17805,2.46867 -15.06141,2.46867 -6.3148,0 -12.00204,-0.68574 -17.06175,-2.05727 -5.02046,-1.37148 -10.13898,-3.40587 -15.355556,-6.10321 v -17.00669 h 0.823672 c 4.432124,4.29738 9.550644,7.61184 15.355564,9.94343 5.80491,2.33156 11.25683,3.49734 16.35573,3.49734 7.21692,0 12.82573,-1.57722 16.82641,-4.73169 4.03992,-3.15447 6.05988,-7.36045 6.05988,-12.61788 0,-4.52599 -0.96096,-7.86336 -2.88286,-10.01205 -1.88268,-2.14869 -4.76551,-3.81736 -8.64853,-5.00597 -2.94169,-0.91433 -6.13832,-1.66864 -9.58988,-2.263 -3.41236,-0.59432 -7.04043,-1.34868 -10.88421,-2.26298 -7.76605,-1.92011 -13.53173,-5.18891 -17.29708,-9.80631 -3.72613,-4.66311 -5.589195,-10.72062 -5.589195,-18.17248 0,-8.54909 3.098575,-15.5438 9.295715,-20.98411 6.19712,-5.48602 14.06122,-8.22904 23.59226,-8.22904 6.15793,0 11.80595,0.68575 16.94407,2.05727 5.13814,1.3715 9.68794,3.06304 13.6494,5.07457 l 13.69206,-1.53162 3.91349,-2.00305 c 0.72569,10.11092 4.04254,10.04264 -17.07736,12.31995 -2.43616,-4.04476 -25.49324,-4.19071 -31.18049,-4.19071 -6.23636,0 -11.25682,1.50865 -15.06141,4.52597 -3.76534,3.01732 -5.64802,6.90328 -5.64802,11.65786 0,4.25165 0.94134,7.58899 2.82402,10.01199 1.88266,2.42297 5.19696,4.27453 9.94288,5.55462 2.51022,0.64003 6.07946,1.41721 10.7077,2.33152 4.62824,0.91435 8.55048,1.85157 11.76672,2.81164 6.51094,2.01155 11.41372,5.05172 14.70839,9.12051 3.29469,4.06878 4.94202,9.76055 4.94202,17.07533 z m 30.04586,5.4316 c -5.49226,2.09036 -1.01029,7.5779 -19.18997,15.23557 -4.39381,1.82905 -10.18568,3.74521 -17.37558,5.74843 -6.09141,1.65481 -12.73206,3.04834 -19.92193,4.18061 -7.09002,1.21934 -14.92898,1.82902 -23.51689,1.82902 -16.177219,0 -30.906478,-1.9597 -44.187787,-5.87898 C 58.261126,217.60603 46.777291,211.37865 36.991058,202.93027 27.404563,194.65611 19.915111,184.16099 14.522692,171.44489 9.1302935,158.64175 6.4340935,143.79181 6.4340935,126.89503 c 0,-16.02575 2.5963439,-30.353117 7.7890375,-42.982106 5.19268,-12.628989 12.682136,-23.29831 22.468364,-32.007958 9.486642,-8.448362 20.920541,-14.893498 34.301692,-19.335411 13.481017,-4.441932 28.41,-6.662897 44.786943,-6.662897 11.98313,0 23.91633,1.262901 35.79958,3.788708 11.98311,2.525792 25.26443,6.96771 39.84394,13.325766 v 30.701507 h -2.24682 C 176.89412,64.751693 164.71125,58.219456 152.62826,54.125929 140.54527,50.032392 127.61348,47.98562 113.83288,47.98562 c -11.28413,0 -21.469786,1.61129 -30.556981,4.833865 -8.987349,3.135467 -17.026025,8.056414 -24.116038,14.762843 -6.890306,6.53224 -12.282721,14.80641 -16.177244,24.822503 -3.794655,9.928989 -5.691981,21.425719 -5.691981,34.490199 0,13.67417 2.097048,25.43219 6.291149,35.27412 4.293951,9.84188 9.786222,17.85476 16.476803,24.0386 6.99016,6.44513 15.128698,11.23547 24.41562,14.37096 9.38679,3.04838 2.362976,3.07679 29.658232,4.57254 62.63479,3.43238 86.24426,-19.27237 73.71307,-22.94812 -12.61498,-3.70033 8.1931,-9.11064 4.1894,-2.65827 h -0.61126 z m 11.9438,-33.94093 q 0,12.18936 -4.48852,22.65507 -4.36029,10.34258 -12.3115,17.9763 -9.8748,9.48065 -23.34046,14.2825 -13.46565,4.67884 -33.98474,4.67884 h -25.39238 v 68.33468 H 82.668526 V 111.15036 h 51.810714 q 17.18475,0 29.11147,2.83191 11.92671,2.70875 21.1603,8.6188 10.90078,7.01819 16.80002,17.48382 6.02748,10.46567 6.02748,26.47204 z m -26.41832,0.61574 q 0,-9.48063 -3.46262,-16.49881 -3.4626,-7.01812 -10.51604,-11.45065 -6.15571,-3.8169 -14.10686,-5.41752 -7.82291,-1.72376 -19.87788,-1.72376 h -25.13588 v 73.2596 h 21.41681 q 15.38931,0 25.00764,-2.5856 9.61832,-2.70879 15.64579,-8.49555 6.02751,-5.9101 8.46414,-12.43573 2.5649,-6.52565 2.5649,-14.65198 z"
       id="path4" />
  </g>
</svg>
